<svg width="1365" height="1365" viewBox="0 0 1365 1365" fill="none" xmlns="http://www.w3.org/2000/svg">
<path d="M668.202 1.64239C684.082 -2.13095 701.469 0.655721 715.269 9.40239C731.096 19.2291 742.029 36.5624 743.922 55.1091C744.776 63.7091 744.456 72.3624 744.456 81.0024C744.469 151.669 744.456 222.336 744.469 293.002C744.469 306.122 745.322 319.802 740.216 332.216C734.056 348.589 720.576 362.042 704.176 368.122C688.029 374.202 669.336 373.189 654.002 365.229C633.749 355.042 620.162 333.042 620.402 310.309C620.402 227.216 620.362 144.122 620.416 61.0291C620.229 33.3357 641.122 7.34905 668.202 1.64239Z" fill="url(#paint0_linear_413_248)"/>
<path d="M237.482 186.976C257.189 183.416 278.176 190.269 292.229 204.469C353.829 265.962 415.349 327.549 476.896 389.096C488.936 400.869 496.416 417.389 496.149 434.322C496.349 454.069 486.149 473.349 470.069 484.709C452.309 497.629 427.496 499.789 407.722 490.229C396.282 485.096 387.776 475.629 379.096 466.909C321.322 409.136 263.562 351.349 205.762 293.589C200.176 287.922 195.176 281.562 191.882 274.269C184.229 258.096 184.162 238.562 191.669 222.336C199.856 203.936 217.629 190.269 237.482 186.976Z" fill="url(#paint1_linear_413_248)"/>
<path d="M1106.79 186.856C1119.43 184.922 1132.7 186.762 1144.15 192.536C1158.68 199.656 1170.19 212.722 1175.3 228.096C1180.96 244.589 1179.22 263.442 1170.58 278.602C1165.3 288.056 1157.11 295.322 1149.58 302.909C1094.9 357.576 1040.24 412.242 985.576 466.909C977.536 474.909 969.802 483.616 959.589 488.909C944.069 497.269 924.909 498.469 908.469 492.136C890.776 485.482 876.522 470.282 871.136 452.136C864.362 430.469 870.869 405.576 887.122 389.776C943.069 333.736 999.109 277.776 1055.1 221.762C1061.84 215.189 1068.23 208.229 1075.24 201.909C1084.02 193.989 1095.11 188.696 1106.79 186.856Z" fill="url(#paint2_linear_413_248)"/>
<path d="M49.5091 621.642C54.1758 620.709 58.9358 620.416 63.6824 620.362C140.122 620.442 216.562 620.362 293.002 620.402C303.362 620.456 313.869 619.709 324.069 621.949C340.949 625.776 355.962 637.096 364.296 652.269C372.909 667.602 374.402 686.656 368.482 703.189C362.576 720.042 348.909 733.922 332.216 740.216C324.056 743.589 315.136 744.389 306.389 744.482C231.256 744.429 156.136 744.482 81.0024 744.456C72.3758 744.456 63.7091 744.776 55.1091 743.922C36.5624 742.029 19.2291 731.096 9.40245 715.269C0.442449 701.149 -2.23755 683.296 1.89578 667.122C7.24245 644.469 26.6558 625.976 49.5091 621.642Z" fill="url(#paint3_linear_413_248)"/>
<path d="M1042.8 621.509C1051.88 619.882 1061.15 620.402 1070.34 620.389C1142.34 620.402 1214.34 620.389 1286.34 620.389C1297.38 620.429 1308.66 619.616 1319.43 622.616C1334.42 626.802 1347.75 636.842 1355.75 650.216C1364.12 663.882 1366.72 680.896 1363.03 696.469C1358.72 716.402 1343.51 733.349 1324.46 740.402C1311.48 745.522 1297.31 744.389 1283.67 744.456C1208.08 744.456 1132.5 744.469 1056.92 744.456C1038.58 744.842 1020.07 737.256 1008.04 723.282C994.682 708.456 989.589 686.949 994.349 667.629C999.696 644.549 1019.47 625.656 1042.8 621.509Z" fill="url(#paint4_linear_413_248)"/>
<path d="M422.816 869.536C437.536 866.816 453.229 869.522 466.042 877.322C482.376 887.082 493.882 904.656 495.776 923.656C497.562 939.162 493.189 955.269 483.722 967.696C478.749 974.202 472.682 979.776 466.909 985.576C409.136 1043.35 351.349 1101.12 293.576 1158.91C285.029 1167.63 274.242 1174.26 262.256 1176.96C242.709 1181.63 220.989 1176.14 206.256 1162.39C193.256 1150.64 185.696 1133.15 186.136 1115.62C186.149 1099.18 193.442 1083.22 205.109 1071.76C260.429 1016.42 315.776 961.109 371.096 905.762C378.296 898.749 385.122 891.336 392.562 884.576C400.989 876.869 411.602 871.629 422.816 869.536Z" fill="url(#paint5_linear_413_248)"/>
<path d="M918.816 869.589C932.589 866.989 947.216 869.096 959.576 875.749C969.789 881.042 977.536 889.749 985.576 897.762C1040.24 952.429 1094.9 1007.1 1149.56 1061.76C1157.79 1069.99 1166.76 1077.98 1171.94 1088.62C1180.23 1104.84 1180.74 1124.75 1173.44 1141.42C1167.31 1155.6 1155.62 1167.31 1141.42 1173.43C1125.36 1180.47 1106.27 1180.28 1090.4 1172.8C1079.82 1168.15 1071.71 1159.68 1063.75 1151.58C1008.44 1096.23 953.096 1040.91 897.762 985.576C890.656 978.416 883.002 971.589 877.656 962.949C868.429 948.082 866.042 929.256 871.136 912.522C877.509 890.882 896.602 873.629 918.816 869.589Z" fill="url(#paint6_linear_413_248)"/>
<path d="M670.829 993.669C687.109 990.616 704.603 994.229 718.083 1003.94C732.869 1014.27 742.722 1031.38 744.069 1049.38C744.869 1059.46 744.336 1069.58 744.456 1079.67C744.469 1148.11 744.456 1216.56 744.469 1285C744.442 1298.2 745.362 1311.91 740.402 1324.44C733.349 1343.51 716.416 1358.72 696.469 1363.03C680.896 1366.72 663.882 1364.12 650.216 1355.75C636.549 1347.55 626.296 1333.83 622.349 1318.39C619.749 1308.36 620.402 1297.91 620.389 1287.67C620.416 1209.9 620.376 1132.12 620.402 1054.36C620.416 1040.96 624.856 1027.66 632.989 1017.02C642.176 1004.95 655.882 996.376 670.829 993.669Z" fill="url(#paint7_linear_413_248)"/>
<defs>
<linearGradient id="paint0_linear_413_248" x1="682.334" y1="0" x2="682.334" y2="1364.67" gradientUnits="userSpaceOnUse">
<stop stop-color="#6A20AA"/>
<stop offset="1" stop-color="#342FA1"/>
</linearGradient>
<linearGradient id="paint1_linear_413_248" x1="682.334" y1="0" x2="682.334" y2="1364.67" gradientUnits="userSpaceOnUse">
<stop stop-color="#6A20AA"/>
<stop offset="1" stop-color="#342FA1"/>
</linearGradient>
<linearGradient id="paint2_linear_413_248" x1="682.334" y1="0" x2="682.334" y2="1364.67" gradientUnits="userSpaceOnUse">
<stop stop-color="#6A20AA"/>
<stop offset="1" stop-color="#342FA1"/>
</linearGradient>
<linearGradient id="paint3_linear_413_248" x1="682.334" y1="0" x2="682.334" y2="1364.67" gradientUnits="userSpaceOnUse">
<stop stop-color="#6A20AA"/>
<stop offset="1" stop-color="#342FA1"/>
</linearGradient>
<linearGradient id="paint4_linear_413_248" x1="682.334" y1="0" x2="682.334" y2="1364.67" gradientUnits="userSpaceOnUse">
<stop stop-color="#6A20AA"/>
<stop offset="1" stop-color="#342FA1"/>
</linearGradient>
<linearGradient id="paint5_linear_413_248" x1="682.334" y1="0" x2="682.334" y2="1364.67" gradientUnits="userSpaceOnUse">
<stop stop-color="#6A20AA"/>
<stop offset="1" stop-color="#342FA1"/>
</linearGradient>
<linearGradient id="paint6_linear_413_248" x1="682.334" y1="0" x2="682.334" y2="1364.67" gradientUnits="userSpaceOnUse">
<stop stop-color="#6A20AA"/>
<stop offset="1" stop-color="#342FA1"/>
</linearGradient>
<linearGradient id="paint7_linear_413_248" x1="682.334" y1="0" x2="682.334" y2="1364.67" gradientUnits="userSpaceOnUse">
<stop stop-color="#6A20AA"/>
<stop offset="1" stop-color="#342FA1"/>
</linearGradient>
</defs>
</svg>
