<svg width="945" height="941" viewBox="0 0 945 941" fill="none" xmlns="http://www.w3.org/2000/svg">
<path d="M617.218 865.91C576.599 960.143 525.292 965.439 463.296 881.799C401.3 798.159 346.03 742.824 297.486 715.793C248.941 688.763 200.206 650.404 151.28 600.716C102.353 551.029 59.0471 480.419 21.3609 388.887C-16.3253 297.354 -3.25619 215.02 60.5684 141.886C124.393 68.7513 201.857 23.4037 292.96 5.84306C384.063 -11.7176 458.771 17.495 517.085 93.4807C575.398 169.467 643.712 208.192 722.027 209.656C800.341 211.121 860.565 246.035 902.701 314.399C944.836 382.763 955.073 455.873 933.414 533.731C911.754 611.588 863.795 662.858 789.535 687.539C715.276 712.22 657.837 771.677 617.218 865.91Z" fill="url(#paint0_linear_403_237)"/>
<defs>
<linearGradient id="paint0_linear_403_237" x1="795.064" y1="169.56" x2="174.319" y2="637.413" gradientUnits="userSpaceOnUse">
<stop stop-color="#6A20AA"/>
<stop offset="1" stop-color="#342FA1"/>
</linearGradient>
</defs>
</svg>
