<svg width="606" height="606" viewBox="0 0 606 606" fill="none" xmlns="http://www.w3.org/2000/svg">
<path d="M606 303C606 470.342 470.342 606 303 606C135.658 606 0 470.342 0 303C0 135.658 135.658 0 303 0C470.342 0 606 135.658 606 303Z" fill="#171927"/>
<path d="M548.371 303C548.371 438.514 438.514 548.371 303 548.371C167.486 548.371 57.6294 438.514 57.6294 303C57.6294 167.486 167.486 57.6294 303 57.6294C438.514 57.6294 548.371 167.486 548.371 303Z" fill="#191B2A"/>
<path d="M490.741 303C490.741 406.687 406.687 490.741 303 490.741C199.313 490.741 115.259 406.687 115.259 303C115.259 199.313 199.313 115.259 303 115.259C406.687 115.259 490.741 199.313 490.741 303Z" fill="#1E1F30"/>
<path d="M433.112 303C433.112 374.859 374.859 433.112 303 433.112C231.141 433.112 172.888 374.859 172.888 303C172.888 231.141 231.141 172.888 303 172.888C374.859 172.888 433.112 231.141 433.112 303Z" fill="#202333"/>
</svg>
