<svg width="1440" height="551" viewBox="0 0 1440 551" fill="none" xmlns="http://www.w3.org/2000/svg">
<g opacity="0.5">
<path d="M174.068 277.296C224.974 231.092 309 163 309 163C309 163 227.311 233.252 176.392 279.491C124.962 326.194 47 401 47 401C47 401 122.551 324.055 174.068 277.296Z" fill="#263052"/>
<path d="M174.068 277.296C224.974 231.092 309 163 309 163C309 163 227.311 233.252 176.392 279.491C124.962 326.194 47 401 47 401C47 401 122.551 324.055 174.068 277.296Z" fill="#263052"/>
<path d="M637.068 396.296C687.974 350.092 772 282 772 282C772 282 690.311 352.252 639.392 398.491C587.962 445.194 510 520 510 520C510 520 585.551 443.055 637.068 396.296Z" fill="#263052"/>
<path d="M95.0682 120.296C145.974 74.0917 230 6 230 6C230 6 148.311 76.2515 97.3915 122.491C45.9621 169.194 -32 244 -32 244C-32 244 43.5515 167.055 95.0682 120.296Z" fill="#263052"/>
<path d="M608.068 224.296C658.974 178.092 743 110 743 110C743 110 661.311 180.252 610.392 226.491C558.962 273.194 481 348 481 348C481 348 556.551 271.055 608.068 224.296Z" fill="#263052"/>
<path d="M1390.07 114.296C1440.97 68.0917 1525 0 1525 0C1525 0 1443.31 70.2515 1392.39 116.491C1340.96 163.194 1263 238 1263 238C1263 238 1338.55 161.055 1390.07 114.296Z" fill="#263052"/>
<path d="M373.552 236.055C463.512 158.012 612 43 612 43C612 43 467.642 161.66 377.658 239.763C286.773 318.647 149 445 149 445C149 445 282.513 315.035 373.552 236.055Z" fill="#263052"/>
<path d="M892.552 283.055C982.512 205.012 1131 90 1131 90C1131 90 986.642 208.66 896.658 286.763C805.773 365.647 668 492 668 492C668 492 801.513 362.035 892.552 283.055Z" fill="#263052"/>
<path d="M1272.55 342.055C1362.51 264.012 1511 149 1511 149C1511 149 1366.64 267.66 1276.66 345.763C1185.77 424.647 1048 551 1048 551C1048 551 1181.51 421.035 1272.55 342.055Z" fill="#263052"/>
<path d="M322.814 392.957C357.593 363.059 415 319 415 319C415 319 359.19 364.457 324.401 394.377C289.264 424.596 236 473 236 473C236 473 287.617 423.212 322.814 392.957Z" fill="#263052"/>
<path d="M1383.81 419.957C1418.59 390.059 1476 346 1476 346C1476 346 1420.19 391.457 1385.4 421.377C1350.26 451.596 1297 500 1297 500C1297 500 1348.62 450.212 1383.81 419.957Z" fill="#263052"/>
<path d="M561.814 346.957C596.593 317.059 654 273 654 273C654 273 598.19 318.457 563.401 348.377C528.264 378.596 475 427 475 427C475 427 526.617 377.212 561.814 346.957Z" fill="#263052"/>
<path d="M727.814 350.957C762.593 321.059 820 277 820 277C820 277 764.19 322.457 729.401 352.377C694.264 382.596 641 431 641 431C641 431 692.617 381.212 727.814 350.957Z" fill="#263052"/>
<path d="M1187.81 192.957C1222.59 163.059 1280 119 1280 119C1280 119 1224.19 164.457 1189.4 194.377C1154.26 224.596 1101 273 1101 273C1101 273 1152.62 223.212 1187.81 192.957Z" fill="#263052"/>
<path d="M926.814 399.957C961.593 370.059 1019 326 1019 326C1019 326 963.19 371.457 928.401 401.377C893.264 431.596 840 480 840 480C840 480 891.617 430.212 926.814 399.957Z" fill="#263052"/>
</g>
</svg>
